<?xml version="1.0" encoding="utf-8"?>
<!-- Generator: Adobe Illustrator 24.0.1, SVG Export Plug-In . SVG Version: 6.00 Build 0)  -->
<svg version="1.1" id="Layer_1" zoomAndPan="disable"
	 xmlns="http://www.w3.org/2000/svg" xmlns:xlink="http://www.w3.org/1999/xlink" x="0px" y="0px" viewBox="0 0 1000 500"
	 style="enable-background:new 0 0 1000 500;" xml:space="preserve">
<style type="text/css">
	.st0{fill:#FFFFFF;}
</style>
<path class="st0" d="M1044,502.6L1044,502.6c-3.2,0-6.1-1.9-7.3-4.9c-1.2-3-0.5-6.4,1.7-8.7c2.3-2.3,5.7-3,8.7-1.7
	c3,1.2,4.9,4.1,4.9,7.3C1052,499.1,1048.4,502.6,1044,502.6L1044,502.6z M922.6,439.1c-8,0-15.3-4.8-18.3-12.3
	c-3.1-7.4-1.4-16,4.3-21.6c5.7-5.7,14.2-7.4,21.6-4.3c7.4,3.1,12.2,10.3,12.2,18.3C942.4,430.2,933.5,439.1,922.6,439.1L922.6,439.1
	z M745.5,502.6c-3.2,0-6.1-1.9-7.3-4.9c-1.2-3-0.5-6.4,1.7-8.7c2.3-2.3,5.7-3,8.7-1.7c3,1.2,4.9,4.1,4.9,7.3
	C753.5,499.1,749.9,502.6,745.5,502.6L745.5,502.6z M1076.5,504c-2.6-2.6-5.6-4.8-8.9-6.6c0.1-0.9,0.2-1.8,0.3-2.7
	c0-10.1-6.4-19-15.9-22.4v-33.2c0-21.9-17.8-39.7-39.7-39.7h-54v-15.9H831.3v15.9h-54c-21.9,0-39.7,17.8-39.7,39.7v33.2
	c-9.5,3.4-15.9,12.3-15.9,22.4c0,0.9,0.1,1.8,0.3,2.7c-3.3,1.7-6.2,3.9-8.9,6.6c-8.7,8.6-11.4,21.6-6.9,32.9c0.7,2,2.1,3.6,4,4.6
	c1.9,0.9,4.1,1.1,6.1,0.4c2-0.7,3.6-2.1,4.6-4c0.9-1.9,1.1-4.1,0.4-6.1c-3.4-7.7,0-16.7,7.6-20.2c9.2,9.1,24.1,9.1,33.3,0
	c7.5,3.6,10.9,12.5,7.6,20.2c-0.7,2-0.5,4.2,0.4,6.1c0.9,1.9,2.6,3.3,4.6,4c2,0.7,4.2,0.5,6.1-0.4c1.9-0.9,3.3-2.6,4-4.6
	c4.5-11.4,1.7-24.3-6.9-32.9c-2.6-2.6-5.6-4.8-8.9-6.6c0.1-0.9,0.2-1.8,0.3-2.7c0-10.1-6.4-19-15.9-22.4v-33.2
	c0-13.2,10.7-23.8,23.8-23.8h54V455h127.1v-39.7h54c13.2,0,23.8,10.7,23.8,23.8v33.2c-9.5,3.4-15.9,12.3-15.9,22.4
	c0,0.9,0.1,1.8,0.3,2.7c-3.2,1.7-6.2,3.9-8.9,6.6c-8.6,8.6-11.4,21.6-6.9,32.9c0.7,2,2.1,3.6,4,4.6c1.9,0.9,4.1,1.1,6.1,0.4
	c2-0.7,3.7-2.1,4.6-4c0.9-1.9,1.1-4.1,0.4-6.1c-3.4-7.7,0-16.7,7.6-20.2c9.3,9.1,24.1,9.1,33.4,0c7.5,3.6,10.8,12.5,7.6,20.2
	c-0.7,2-0.5,4.2,0.4,6.1c0.9,1.9,2.6,3.3,4.6,4c2,0.7,4.2,0.5,6.1-0.4c1.9-0.9,3.3-2.6,4-4.6C1087.8,525.5,1085.1,512.6,1076.5,504
	L1076.5,504z"/>
<rect x="831.3" y="470.8" class="st0" width="127.1" height="15.9"/>
<path class="st0" d="M926.6,419.2c0,5.3-7.9,5.3-7.9,0C918.6,413.9,926.6,413.9,926.6,419.2"/>
<path class="st0" d="M831.3,510.6c0,4.4,3.6,7.9,7.9,7.9h111.2c4.4,0,7.9-3.6,7.9-7.9v-7.9H831.3L831.3,510.6z"/>
<rect x="847.1" y="534.4" class="st0" width="39.7" height="31.8"/>
<rect x="902.7" y="534.4" class="st0" width="39.7" height="31.8"/>
<path class="st0" d="M926.6,605.9h15.9V582h-39.7C902.7,595.2,913.4,605.9,926.6,605.9z"/>
<path class="st0" d="M866.7,212.5c11.4-11.4,28.4-14.7,43.3-8.6c14.9,6.1,24.5,20.6,24.5,36.7c0.9,11-4.3,21.6-13.5,27.7
	c-2,1.1-4,2.2-6.1,3.1c-2.3,0.9-4.4,2.1-6.4,3.6c-3.8,3.4-5.9,8.2-5.7,13.3c0,4.4-3.6,7.9-7.9,7.9s-7.9-3.6-7.9-7.9
	c-0.2-9.8,4-19.2,11.5-25.5c3-2.3,6.3-4.3,9.8-5.7c1.6-0.7,3.1-1.5,4.6-2.3c3.5-2.1,5.8-5.3,5.8-14.1c0-6.3-2.5-12.4-7-16.8
	c-9.4-9-24.3-9-33.7,0c-4.5,4.4-7,10.5-7,16.8c0,4.4-3.6,7.9-7.9,7.9c-4.4,0-7.9-3.6-7.9-7.9C855,230,859.2,219.9,866.7,212.5
	L866.7,212.5z M900.4,317.7c-2.7,2.8-7,3.2-10.2,1.1c-3.2-2.1-4.5-6.2-3-9.8c1.5-3.6,5.2-5.6,9-4.8c3.8,0.7,6.5,4,6.5,7.9
	C902.7,314.1,901.9,316.1,900.4,317.7L900.4,317.7z M894.8,343.8c21.1,0,41.3-8.4,56.2-23.3c14.9-14.9,23.3-35.1,23.3-56.2
	s-8.4-41.3-23.3-56.2c-14.9-14.9-35.1-23.3-56.2-23.3s-41.3,8.4-56.2,23.3s-23.3,35.1-23.3,56.2c0,21.1,8.4,41.3,23.3,56.2
	S873.7,343.8,894.8,343.8z"/>
<path class="st0" d="M894.8,169.1c25.3,0,49.5,10.1,67.4,27.9c17.9,17.9,27.9,42.1,27.9,67.4c0,25.3-10.1,49.5-27.9,67.4
	c-17.9,17.9-42.1,27.9-67.4,27.9c-25.3,0-49.5-10-67.4-27.9c-17.9-17.9-27.9-42.1-27.9-67.4c0-25.3,10.1-49.5,27.9-67.4
	S869.5,169.1,894.8,169.1z M799.5,367.6h190.6c13.2,0,23.8-10.7,23.8-23.8v-63.5c0-31.6-12.5-61.9-34.9-84.2
	c-22.3-22.3-52.6-34.9-84.2-34.9c-1.9,0-3.9,0.1-5.8,0.1c-31,1.9-60.1,15.7-81.3,38.5c-21.1,22.8-32.6,52.9-32.1,84v60
	C775.7,356.9,786.3,367.6,799.5,367.6L799.5,367.6z"/>
<path class="st0" d="M1053.6,312c0-14.4-9.8-27-23.8-30.6v61.3C1043.8,339.1,1053.6,326.5,1053.6,312L1053.6,312z"/>
<path class="st0" d="M759.8,342.7v-58.8c0-0.8,0.1-1.7,0.1-2.5c-14.1,3.5-23.9,16.1-23.9,30.6C735.9,326.4,745.7,339.1,759.8,342.7
	L759.8,342.7z"/>
<path class="st0" d="M847.1,605.9H863c13.2,0,23.8-10.7,23.8-23.8h-39.7V605.9z"/>
</svg>
